<svg xmlns="http://www.w3.org/2000/svg" viewBox="0 0 900 540">
  <defs>
    <linearGradient id="g" x1="0" y1="0" x2="1" y2="1">
      <stop offset="0" stop-color="#22d3ee" stop-opacity="0.55"/>
      <stop offset="1" stop-color="#7dd3fc" stop-opacity="0.15"/>
    </linearGradient>
    <filter id="shadow" x="-20%" y="-20%" width="140%" height="140%">
      <feDropShadow dx="0" dy="18" stdDeviation="18" flood-color="#000" flood-opacity="0.35"/>
    </filter>
  </defs>

  <rect width="900" height="540" fill="#070a12"/>
  <circle cx="160" cy="120" r="190" fill="url(#g)" opacity="0.85"/>
  <circle cx="760" cy="110" r="160" fill="#7dd3fc" opacity="0.08"/>

  <!-- Card -->
  <g filter="url(#shadow)">
    <rect x="170" y="120" width="560" height="320" rx="28" fill="rgba(255,255,255,0.06)" stroke="rgba(255,255,255,0.12)"/>
    <rect x="210" y="170" width="480" height="18" rx="9" fill="rgba(255,255,255,0.18)"/>
    <rect x="210" y="214" width="420" height="14" rx="7" fill="rgba(255,255,255,0.10)"/>
    <rect x="210" y="248" width="380" height="14" rx="7" fill="rgba(255,255,255,0.10)"/>

    <g>
      <rect x="210" y="292" width="34" height="34" rx="10" fill="rgba(34,211,238,0.18)" stroke="rgba(34,211,238,0.35)"/>
      <path d="M220 309l6 6 12-14" stroke="#7dd3fc" stroke-width="4" stroke-linecap="round" stroke-linejoin="round"/>
    </g>
    <rect x="260" y="300" width="260" height="18" rx="9" fill="rgba(255,255,255,0.12)"/>

    <rect x="210" y="360" width="180" height="44" rx="16" fill="rgba(125,211,252,0.18)" stroke="rgba(125,211,252,0.30)"/>
    <rect x="405" y="360" width="130" height="44" rx="16" fill="rgba(255,255,255,0.06)" stroke="rgba(255,255,255,0.10)"/>
  </g>

  <text x="190" y="95" font-family="ui-sans-serif, system-ui" font-size="28" fill="rgba(238,242,255,0.92)" font-weight="700">Início de turno</text>
  <text x="190" y="470" font-family="ui-sans-serif, system-ui" font-size="16" fill="rgba(238,242,255,0.65)">Check rápido • sem erro • auditável</text>
</svg>
